<svg xmlns="http://www.w3.org/2000/svg" viewBox="0 0 325.86 72.46"><defs><style>.cls-header-logo-1{fill:#445464;}.cls-header-logo-2{fill:#00a6b4;}</style></defs><title>Tenable Logo</title><g id="Layer_2" data-name="Layer 2"><g id="Layer_1-2" data-name="Layer 1"><path class="cls-header-logo-1" d="M85.34,50.06V30.27H79V21.52h6.3V11.11h10V21.52h7.73v8.75H95.35V47.38c0,2.44,1.27,4.25,3.47,4.25a5,5,0,0,0,3.47-1.18l2.13,7.65c-1.5,1.34-4.18,2.44-8.36,2.44C89.05,60.54,85.34,56.91,85.34,50.06Z"/><path class="cls-header-logo-1" d="M105.37,40.52c0-11,8.19-20,19.7-20s19.08,8.52,19.08,20.89v2.37h-28.3c.71,4.65,4.49,8.51,11,8.51,3.23,0,7.64-1.34,10.09-3.7l4.49,6.62c-3.78,3.47-9.77,5.28-15.69,5.28C114.12,60.54,105.37,52.74,105.37,40.52Zm19.7-11.75c-6.22,0-8.9,4.34-9.3,8.12h18.76C134.22,33.27,131.7,28.77,125.07,28.77Z"/><path class="cls-header-logo-1" d="M173.6,59.59v-23c0-5.28-2.76-7.1-7-7.1a11.14,11.14,0,0,0-8.67,4.42V59.59h-10V21.52h10v4.89a17.81,17.81,0,0,1,13.32-5.84c8.44,0,12.46,4.73,12.46,12.14V59.59Z"/><path class="cls-header-logo-1" d="M212.21,59.59v-4c-2.6,3.16-7.09,5-12.06,5-6.07,0-13.16-4.1-13.16-12.61,0-9,7.09-12.3,13.16-12.3,5.13,0,9.54,1.66,12.06,4.65V35.47c0-3.86-3.31-6.38-8.35-6.38a16,16,0,0,0-11,4.49l-3.94-7a24.61,24.61,0,0,1,16.63-6c8.75,0,16.71,3.47,16.71,14.43V59.59Zm0-9.14V45.72c-1.65-2.21-4.8-3.39-8-3.39-3.94,0-7.17,2.13-7.17,5.76s3.23,5.67,7.17,5.67C207.41,53.76,210.56,52.66,212.21,50.45Z"/><path class="cls-header-logo-1" d="M226.59,59.59V7h10v19.4a14.47,14.47,0,0,1,11.75-5.84c9.7,0,16.87,7.57,16.87,20,0,12.77-7.25,20-16.87,20a14.81,14.81,0,0,1-11.75-5.83v4.88Zm18.69-8c5.75,0,9.61-4.49,9.61-11.11s-3.86-11-9.61-11a11.2,11.2,0,0,0-8.68,4.42V47.38A11.32,11.32,0,0,0,245.28,51.63Z"/><path class="cls-header-logo-1" d="M268.6,59.59V7h10V59.59Z"/><path class="cls-header-logo-1" d="M282.37,40.52c0-11,8.19-20,19.7-20s19.08,8.52,19.08,20.89v2.37h-28.3c.71,4.65,4.49,8.51,11,8.51,3.23,0,7.64-1.34,10.09-3.7l4.49,6.62c-3.78,3.47-9.77,5.28-15.69,5.28C291.12,60.54,282.37,52.74,282.37,40.52Zm19.7-11.75c-6.22,0-8.9,4.34-9.3,8.12h18.76C311.22,33.27,308.7,28.77,302.07,28.77Z"/><path class="cls-header-logo-1" d="M324.23,16.72a3.24,3.24,0,0,1,1.2,1.21,3.34,3.34,0,0,1,.43,1.68,3.3,3.3,0,0,1-.43,1.67,3.14,3.14,0,0,1-1.2,1.2,3.24,3.24,0,0,1-1.68.44,3.25,3.25,0,0,1-2.84-1.64,3.31,3.31,0,0,1-.44-1.67,3.34,3.34,0,0,1,.44-1.68,3.21,3.21,0,0,1,1.19-1.21,3.15,3.15,0,0,1,1.65-.45A3.25,3.25,0,0,1,324.23,16.72Zm-.34,5.22a2.43,2.43,0,0,0,.93-1,3.05,3.05,0,0,0,0-2.76,2.42,2.42,0,0,0-.93-1,2.51,2.51,0,0,0-1.34-.35,2.46,2.46,0,0,0-1.32.35,2.37,2.37,0,0,0-.91,1,3.05,3.05,0,0,0,0,2.76,2.38,2.38,0,0,0,.91,1,2.55,2.55,0,0,0,1.32.35A2.6,2.6,0,0,0,323.89,21.94Zm-.16-2.45a1.39,1.39,0,0,1-.61.37l1,1.49h-.87L322.42,20h-.31v1.38h-.75V17.76h1c1.06,0,1.58.37,1.58,1.1A.88.88,0,0,1,323.73,19.49Zm-1.62-.09h.38c.47,0,.71-.18.71-.54a.44.44,0,0,0-.18-.4,1,1,0,0,0-.55-.12h-.36Z"/><path class="cls-header-logo-2" d="M63.54,11.25c.2.76.94,3.51,1.64,6.13h0l5.55,20.71c.7,2.62,1.44,5.37,1.65,6.13h0a3.54,3.54,0,0,1-.85,3.17h0L67,51.88h0L51.88,67C50,69,48,71,47.39,71.53h0a3.54,3.54,0,0,1-3.17.85h0l-6.13-1.64h0L17.38,65.19l-6.13-1.65h0a3.36,3.36,0,0,1-1.45-.87h0a3.36,3.36,0,0,1-.87-1.45h0c-.21-.75-.95-3.52-1.65-6.13h0L1.73,34.38.09,28.25h0L.88,28l.8-.21c.2.76.94,3.52,1.64,6.13h0L8.87,54.66c.7,2.62,1.44,5.38,1.64,6.14h0a1.8,1.8,0,0,0,.45.71h0a1.8,1.8,0,0,0,.71.45h0L17.8,63.6h0l20.71,5.55,6.14,1.64h0a2,2,0,0,0,1.58-.42h0l4.49-4.49h0L65.88,50.72l4.49-4.49h0a2,2,0,0,0,.42-1.58h0c-.21-.76-.94-3.52-1.64-6.14h0l-5.56-20.7c-.69-2.62-1.44-5.38-1.64-6.13h0A1.8,1.8,0,0,0,61.5,11h0a1.55,1.55,0,0,0-.71-.45h0L54.66,8.87h0L34,3.32,27.82,1.68h0a2,2,0,0,0-1.58.42h0L21.75,6.59h0L6.59,21.75,2.1,26.24h0a1.93,1.93,0,0,0-.42,1.58h0L.88,28l-.79.22a3.5,3.5,0,0,1,.85-3.17h0l4.49-4.5h0L20.59,5.43,25.08.94h0A3.49,3.49,0,0,1,28.25.09h0l6.13,1.64h0l20.7,5.56,6.13,1.64h0a3.32,3.32,0,0,1,1.45.88h0a3.17,3.17,0,0,1,.88,1.44Z"/><path class="cls-header-logo-2" d="M37.59,5.75l4.53,2.62h0l15.3,8.83L62,19.82h0a2.89,2.89,0,0,1,1.35,2.34h0v5.23h0V50.3h0A2.89,2.89,0,0,1,62,52.64h0l-4.53,2.62h0L42.12,64.09l-4.53,2.62h0a2.71,2.71,0,0,1-1.36.33h0a2.7,2.7,0,0,1-1.35-.33h0L30.35,64.1h0L15,55.26l-4.53-2.62h0l.34-.58.34-.59,4.53,2.62h0L31,62.92l4.54,2.62h0a1.38,1.38,0,0,0,.67.15h0a1.4,1.4,0,0,0,.68-.15h0l4.53-2.62h0l15.31-8.83,4.53-2.62h0A1.64,1.64,0,0,0,62,50.3h0V45.06h0V22.16h0A1.62,1.62,0,0,0,61.28,21h0l-4.53-2.62h0L41.44,9.54,36.91,6.93h0a1.29,1.29,0,0,0-.68-.15h0a1.26,1.26,0,0,0-.67.15h0L31,9.54h0l-15.3,8.83L11.19,21h0a1.62,1.62,0,0,0-.68,1.17h0v5.23h0V50.3h0a1.64,1.64,0,0,0,.68,1.17h0l-.34.59-.34.58A2.87,2.87,0,0,1,9.16,50.3h0c0-.65,0-3,0-5.24h0V22.16h0a2.87,2.87,0,0,1,1.35-2.34h0L15,17.2h0L30.35,8.37l4.53-2.62h0a2.81,2.81,0,0,1,1.35-.33h0a2.79,2.79,0,0,1,1.36.33Z"/><path class="cls-header-logo-2" d="M17.9,16l4.5-1.21h0l15.19-4.07,4.5-1.21h0a2.58,2.58,0,0,1,2.33.63h0l3.3,3.29h0L58.84,24.55l3.29,3.3h0a2.55,2.55,0,0,1,.62,2.33h0c-.14.55-.69,2.58-1.2,4.5h0L57.48,49.87c-.52,1.92-1.06,4-1.21,4.5h0a2.41,2.41,0,0,1-.64,1.06h0a2.41,2.41,0,0,1-1.06.64h0l-4.5,1.21h0l-15.2,4.07-4.5,1.21h0L30.22,62l-.16-.59,4.5-1.2h0l15.2-4.07,4.5-1.21h0a1.35,1.35,0,0,0,.52-.33h0a1.35,1.35,0,0,0,.33-.52h0l1.2-4.5h0l4.07-15.2c.52-1.92,1.06-3.94,1.21-4.5h0a1.43,1.43,0,0,0-.31-1.16h0L58,25.41h0L46.86,14.29,43.57,11h0a1.43,1.43,0,0,0-1.16-.31h0L37.9,11.89h0L22.71,16l-4.49,1.21h0a1.17,1.17,0,0,0-.53.33h0a1.1,1.1,0,0,0-.32.52h0c-.15.55-.7,2.58-1.21,4.5h0L12.08,37.71c-.51,1.92-1.05,3.95-1.2,4.5h0a1.4,1.4,0,0,0,.31,1.16h0l3.29,3.3h0L25.6,57.79l3.3,3.29h0a1.43,1.43,0,0,0,1.16.31h0l.16.59.15.58a2.56,2.56,0,0,1-2.32-.63h0l-3.3-3.29h0L13.63,47.52l-3.29-3.3h0a2.56,2.56,0,0,1-.63-2.32h0c.15-.56.7-2.58,1.21-4.5h0L15,22.2l1.21-4.49h0a2.44,2.44,0,0,1,.64-1.07h0A2.46,2.46,0,0,1,17.9,16Z"/><path class="cls-header-logo-2" d="M13.9,58.57a31.59,31.59,0,1,1,44.67,0A31.58,31.58,0,0,1,13.9,58.57Zm43.63-1a30.08,30.08,0,1,0-42.6.06A30.12,30.12,0,0,0,57.53,57.59Z"/><path class="cls-header-logo-2" d="M37.24,13.37l3.35,1.93h0l11.33,6.54,3.36,1.94h0a2.16,2.16,0,0,1,1,1.74h0v3.87h0v17h0a2.15,2.15,0,0,1-1,1.73h0L51.93,50h0L40.59,56.57l-3.35,1.94h0a2.1,2.1,0,0,1-1,.25h0a2.09,2.09,0,0,1-1-.25h0l-3.36-1.94h0L20.54,50l-3.36-1.94h0l.25-.44.25-.43L21,49.16h0l11.34,6.55,3.35,1.93h0a.91.91,0,0,0,.5.11h0a.88.88,0,0,0,.5-.11h0l3.36-1.93h0l11.33-6.55,3.36-1.94h0a1.17,1.17,0,0,0,.5-.86h0V42.48h0v-17h0a1.17,1.17,0,0,0-.5-.87h0l-3.36-1.94h0L40.09,16.17l-3.36-1.94h0a1.09,1.09,0,0,0-.5-.11h0a1.12,1.12,0,0,0-.5.11h0l-3.36,1.94h0L21,22.71l-3.36,1.94h0a1.24,1.24,0,0,0-.5.87h0v3.87h0v17h0a1.24,1.24,0,0,0,.5.86h0l-.25.43-.25.44a2.12,2.12,0,0,1-1-1.73h0V42.48h0v-17h0a2.12,2.12,0,0,1,1-1.74h0l3.36-1.94h0L31.87,15.3l3.36-1.93h0a2,2,0,0,1,1-.25h0a2,2,0,0,1,1,.25Z"/><path class="cls-header-logo-2" d="M19.69,52.48a23.39,23.39,0,1,1,33.08,0A23.4,23.4,0,0,1,19.69,52.48ZM52,51.75a22.27,22.27,0,1,0-31.55,0A22.29,22.29,0,0,0,52,51.75Z"/></g></g></svg>
