<?xml version="1.0" encoding="utf-8"?>
<!-- Generator: Adobe Illustrator 23.0.3, SVG Export Plug-In . SVG Version: 6.00 Build 0)  -->
<svg version="1.1" id="Layer_1" xmlns="http://www.w3.org/2000/svg" xmlns:xlink="http://www.w3.org/1999/xlink" x="0px" y="0px"
	 viewBox="0 0 633 131" style="enable-background:new 0 0 633 131;" xml:space="preserve">
<style type="text/css">
	.st0{fill:#009982;}
</style>
<path class="st0" d="M285.3,65.2c0,23.4-14.3,34.5-32.2,34.5h-10.9V85.6h10.1c10.8,0,18-5.8,18-20.5c0-14.5-6.8-21.7-18.3-21.7
	c-11.1,0-19,6.8-19,21.4v58.8H218V31.2h14.9v8h2.1c5-6.7,12.3-9.7,20-9.7C271.5,29.5,285.3,41.5,285.3,65.2z M187.3,59.1l-9.9-1
	c-7.8-0.7-11.9-2.8-11.9-7.4c0-5.4,5.3-8.5,12.8-8.5c7.8,0,12.8,3.7,13.2,8.9h14.3c-0.6-13.4-10.9-21.6-27.4-21.6
	c-16.6,0-27.8,8.8-27.8,21.7c0,10.8,6.8,17.8,22.3,19.3l10.1,1c6.1,0.6,10.2,1.8,10.2,7.7c0,5.3-3.8,9.1-13.9,9.1
	c-9.3,0-13.9-4.2-15.5-9.9h-15.5c1.5,12.9,12.4,22.9,31,22.9c17.5,0,28.8-9.2,28.8-22.9C208,66.5,200.1,60.3,187.3,59.1z M343,78.5
	c-2.3,5.4-7.9,9.4-15.9,9.4c-10.9,0-19-7.1-19-22.4c0-14.6,7.5-22.7,19.2-22.7c10.4,0,16.3,6.2,16.9,15.6h-26.8v10.8h41.5v-7.1
	c0-19.7-13.1-32.5-31.7-32.5c-17.3,0-33.9,11.8-33.9,35.9c0,24.1,16.6,35.9,33.9,35.9c15.8,0,27.2-9.8,30.7-22.9H343z M107.9,29.5
	c-16.3,0-28.5,8.5-30,21.6h16c1.1-4.8,5.5-8.4,13.9-8.4c10.8,0,14.3,5.7,14.3,12.6v23.4c-6.1,7-13.2,10.2-20.3,10.2
	c-7.4,0-12.5-3.6-12.5-9.9c0-6.1,4-9.9,11.6-9.9h11.9V58.4h-12.4c-17,0-26.6,8.5-26.6,21.6c0,12.2,9.2,21.4,24.4,21.4
	c8.5,0,16-3.4,21.6-7.5h2.1v5.8h14.9V54C137.2,37.1,125.7,29.5,107.9,29.5z M6.8,99.7h14.9V6H6.8V99.7z M69.4,31.2H51.2L29.5,59.8
	v8.9l22.3,31h18.5L44.1,64.2L69.4,31.2z M608.5,31.2l-12.2,27.1c-3,6.5-5.8,12.9-6.7,17.2h-2.1c-0.9-4.3-3.8-10.5-6.8-17l-12.2-27.3
	H552l28.7,61.5l-14.2,31h15.9L625,31.2H608.5z M548.7,31.2h-18.2l-21.7,28.5v8.9l22.3,31h18.5l-26.1-35.5L548.7,31.2z M455.3,59.1
	l-9.9-1c-7.8-0.7-11.9-2.8-11.9-7.4c0-5.4,5.3-8.5,12.8-8.5c7.8,0,12.8,3.7,13.2,8.9h14.3c-0.6-13.4-10.9-21.6-27.4-21.6
	c-16.6,0-27.8,8.8-27.8,21.7c0,10.8,6.8,17.8,22.3,19.3l10.1,1c6.1,0.6,10.2,1.8,10.2,7.7c0,5.3-3.8,9.1-13.9,9.1
	c-9.3,0-13.9-4.2-15.5-9.9h-15.5c1.5,12.9,12.4,22.9,31,22.9c17.5,0,28.8-9.2,28.8-22.9C476.1,66.5,468.1,60.3,455.3,59.1z
	 M486.1,99.7H501V6h-14.9V99.7z M387.7,39.2h-2.1v-8h-14.9v68.5h14.9V63.9c0-12.2,5.6-19.3,16.8-19.3h9.4V29.5h-5.5
	C396,29.5,391.6,33.4,387.7,39.2z"/>
</svg>
