<svg xmlns="http://www.w3.org/2000/svg" xmlns:xlink="http://www.w3.org/1999/xlink" viewBox="0 0 65 56" fill="#fff" fill-rule="evenodd" stroke="#000" stroke-linecap="round" stroke-linejoin="round"><style><![CDATA[.B{fill-rule:nonzero}.C{fill:#f7a8aa}.D{fill:#fcdddb}.E{fill:#f59298}]]></style><use xlink:href="#A" x=".5" y=".5"/><symbol id="A" overflow="visible"><g stroke="none"><g class="B C"><use xlink:href="#C"/><use xlink:href="#D"/></g><g class="D"><use xlink:href="#E" class="B"/><use xlink:href="#F" class="B"/><use xlink:href="#G" class="B"/></g><g class="E"><use xlink:href="#H" class="B"/><use xlink:href="#I" class="B"/><use xlink:href="#J" class="B"/></g><g class="C"><use xlink:href="#C" class="B"/><use xlink:href="#D" class="B"/></g><g class="D"><use xlink:href="#E" class="B"/><use xlink:href="#F" class="B"/><use xlink:href="#G" class="B"/></g><g class="E"><use xlink:href="#H" class="B"/><use xlink:href="#I" class="B"/><use xlink:href="#J" class="B"/></g><g class="C"><use xlink:href="#C" class="B"/><use xlink:href="#D" class="B"/></g><path d="M34.864 46.378c2.68 2.934 11.785-1.115 18.873-9.486 7.018-8.3 10.43-16.938 8.414-19.37-1.77-2.133-12.585.677-20.285 9.55-7.187 8.28-10.502 15.472-7.002 19.306z" fill="#fac6c5" class="B"/><g class="D"><use xlink:href="#E" class="B"/><use xlink:href="#F" class="B"/><use xlink:href="#G" class="B"/></g><g class="E"><use xlink:href="#H" class="B"/><use xlink:href="#I" class="B"/><use xlink:href="#J" class="B"/></g><g fill="#000"><use xlink:href="#C" class="B"/><path d="M32.656 7.493C31.242 6.098 29.23 10.928 28.68 9.2c1.162-1.162 2.48-3.18 4.236-2.862 2.16.4.437 3.295 1.555 4.133.346.26.753-1.2 1.34-.605-.53 1.424-1.936.782-1.936.782s-.465 2.178-1.127 1.65c-.076-.228.195-.46.317-.823.2-.56.24-1.2-.223-.82a1.59 1.59 0 0 0-.484 1.703c.042.134.67.335.26.586-.224.234-.708-.065-.84-.454-.44-1.297.7-2.87 1.695-2.506-.3-.697-.235-1.917-.82-2.494zm3.966 4.03c0-.194-.194-.58-.58-.388-.194.194-.435.278-.52.656s-.435.906-.242 1.294c.776.387 1.536-.787 1.343-1.562zm-.402.54c-.028.335-.074.298-.232.56s-.223.046-.27-.168.046-.27.15-.614c.087-.294.173-.258.215-.26.195-.018.166.15.138.485zM45.396 29.5c3.1-3.776 7.74-8.242 11.418-8.813-.095 1.63-2.28.836-2.457 2.072-.177.706-.698 1.084-1.18 1.975-2.166 4.006-5.082 6.746-7.88 10.154-5.162 6.288-6.423 4.877-7.155 8.27-.453-4.14 4.08-9.776 7.256-13.66zm6.18 1.058c1.464-1.897 4.84-5.5 8.37-6.727.412.522-1.394 1.098-1.486 1.258-2.92 5.08-3.708 5.6-5.936 8.543-4.216 5.567-7.232 6.23-7.835 8.943-.1-3.2 4.123-8.437 6.886-12.016zm-31.504 4.65c-.353-.883.93-1.914 1.55-1.495-.322.46-.88 1.404-1.55 1.495z" class="B"/></g></g></symbol><defs ><path id="C" d="M63.403 17.08c-.883-1.412-3.354-2.052-5.295-1.7-7.167 1.653-16.8-.63-19.387-2.12-.177 0 .388-1.408.035-1.938.53-.353.7-.6 1.417-.414 1.236.53 2.73.3 3.966.133-.7-1.418-1.453-4.146-2.512-5.734-1.06.882-2.675 1.554-3.735 2.26-1.952-5.272-8.558-6.23-13.897-3.176-.153.088-.298.066-.298.066L21.645 0c-1.9 1.137-3.574 2.67-4.314 2.67-1.434 0-3.177-.01-4.6-.188 0 2.47.95 5.317 1.06 7.425-2.118 2.118-4.236 4.236-5.65 6.883-1.566-.364-3.295-.605-4.898.067-1.026.43-2.217 1.713-1.8 3.1.23.795 1.235 1.622 3.177 2.118-3.803 3.697-5.723 11.32-2.293 13.954-.88.882-1.93 1.715-2.227 2.857-.4 1.522.465 2.07 1.522 2.26 1.953.353 3.376-.607 4.788-1.5 3.044 1.8 5.108 1.677 8.627 1.842.353.017 1.18 1.06 1.18 1.06s-2.377-.27-3.607.1c-1.655.496-3.097 2.054-1.953 3.397 1.7 2.008 4.986 2.747 7.954 2.008 1.798 1.93.96 5.063-2.063 6.322 2.647-.177 5.703-1.94 6.023-5.604.062-.704-.342-1.8-.87-2.34-.353-.353-.838-.882-.838-.882s1.5-2.833-1.588-4.413c1.223-.245 3.53-1.236 3.53-1.236s.934 1.1 1.765 1.236c.886.155 1.954-.35 2.295-1.236.5-1.3-1.06-2.294-1.06-2.294l1.236-1.94s1.066 1.008 1.55 1.818c1.508 2.522 1.803 5.065 3.215 7.536.706 1.235 1.953 2.25 3.188 2.78 1.06.353 2.218.42 3.4.2 1.996-.352 3.563-1.015 4.7-1.7 7.9-4.702 13.417-10.834 18.194-19.535 1.255-2.283 3.862-6.882 2.097-9.706zM40.983 6.556s.47.82.706 1.412l1.038 2.57-1.425-.24-1.334-.955s-.2.702-.927 1.27c-.358-1.033.415-1.552-.666-2.7.882-.53 2.608-1.35 2.608-1.35zm-19.416 42.27c.324 1.883-1.353 3.795-2.5 4.53 1-1.56 1.97-2.236.824-5.442-.453-1.266-1.6-2.177-2.736-2.94-.353-.236-.84-.394-1.383-.53-.588-.148-1.236.294-1.765.823 0 0 1.677.825 3.118 1.1.824 1.1-.824 1.118-.824 1.118-.177.176-4.78-.464-4.47-2.705.118-.855 1.853-2.5 5.324-1.148 1.917.747 4.1 3.448 4.413 5.206zm-1.942-6.62c.865.394.883 1.413.883 2.295 0 .177-.177.177-.353.353-.56-.97-1.44-1.442-2.295-2.117-.195-.155-.294-.207-.117-.383.53-.53 1.236-.442 1.882-.148zm6.433-3.018c-.33 1.234-1.475 1.024-1.6.397-.1-.548.57-.712.808-.982.192.1.827.415.78.585zm6.7 3.235C30.86 36.71 25.565 31.48 22.995 29.98c-.153-.1-.475.387-.475.387s2.317 2.173 2.67 3.762c.353 1.413-.44 2.924-1.324 3.982-3.53 3.355-8.318 2.692-12.862 2.372-1.42-.1-3.497-1.058-2.405-3.177-1.6 1.235-4.06 3.54-5.847 2.824-.346-.14-.87-1.022-.5-1.828.644-1.36 2.802-3.496 4.7-4.444.1-.192-.145-.53-.84-.2-.717.33-2.14 1.704-2.7 1.423-3.22-1.584-1.157-7.503-.1-9.456 1.314-2.427 3-2.86 4.754-3.4-2.1-.374-3.705-.593-4.764-1.652-.53-.706-.277-1.257.253-1.963.53-.53 1.134-.893 1.883-1.112.705-.206 1.326-.122 2.017.027 1.734.374 1.828 1.254 2.7 1.077-.184-.395-1.073-1.246-.902-1.602.853-1.782 2.255-3.675 4.176-5.288.24-.2.452-.25.805-.25.53.177.326.7.632 1.226.525.885 1.982.88 2.864.172 1.765-1.412 2.36-4.06 3.065-6.18 0-.177.575-1.284-.393-.97-.47 1.937-1.236 3.53-2.295 5.295-.53.706-1.143 1.353-2.025 1-.177-.177-.546-.274-.623-.823-.353-2.53-.872-7.26-.872-7.26s2.458.326 3.38.115c.546-.125 1.772-1.578 3.008-2.107.882 1.235 1.705 2.404 2.47 3.62 3.53-1.6 7.677-2.868 11.207-.22 1.236 1.06 2.548 2.378 2.966 3.56.318.894.518 3.103.28 4.785 3 1.588 5.967 2.485 9.328 3.158 1.497.3 2.63.423 4.094.54.725.057 2.414.296 5.793-.297-6.88 1.413-12.44 5.835-17.106 11.23-2.294 2.645-6.442 9.12-6.983 11.438a8.38 8.38 0 0 0-.254 2.68zm28.18-17.5c-1.148 3.407-4.126 7.864-7.194 11.205-2.85 3.104-10.95 10.546-16.647 10.23-2.667-.147-3.716-2.902-2.756-5.966 1.814-5.834 9.846-17.628 20.056-21.858 2.12-.88 5.87-1.28 6.707-.155 1.2 1.624.536 4.415-.176 6.53z"/><path id="D" d="M63.403 17.08c-.883-1.412-3.354-2.052-5.295-1.7-7.167 1.653-16.8-.63-19.387-2.12-.177 0 .388-1.408.035-1.938.53-.353.7-.6 1.417-.414 1.236.53 2.73.3 3.966.133-.7-1.418-1.453-4.146-2.512-5.734-1.06.882-2.675 1.554-3.735 2.26-1.952-5.272-8.558-6.23-13.897-3.176-.153.088-.298.066-.298.066L21.645 0c-1.9 1.137-3.574 2.67-4.314 2.67-1.434 0-3.177-.01-4.6-.188 0 2.47.95 5.317 1.06 7.425-2.118 2.118-4.236 4.236-5.65 6.883-1.566-.364-3.295-.605-4.898.067-1.026.43-2.217 1.713-1.8 3.1.23.795 1.235 1.622 3.177 2.118-3.803 3.697-5.723 11.32-2.293 13.954-.88.882-1.93 1.715-2.227 2.857-.4 1.522.465 2.07 1.522 2.26 1.953.353 3.376-.607 4.788-1.5 3.044 1.8 5.108 1.677 8.627 1.842.353.017 1.18 1.06 1.18 1.06s-2.377-.27-3.607.1c-1.655.496-3.097 2.054-1.953 3.397 1.7 2.008 4.986 2.747 7.954 2.008 1.798 1.93.96 5.063-2.063 6.322 2.647-.177 5.703-1.94 6.023-5.604.062-.704-.342-1.8-.87-2.34-.353-.353-.838-.882-.838-.882s1.5-2.833-1.588-4.413c1.223-.245 3.53-1.236 3.53-1.236s.934 1.1 1.765 1.236c.886.155 1.954-.35 2.295-1.236.5-1.3-1.06-2.294-1.06-2.294l1.236-1.94s1.066 1.008 1.55 1.818c1.508 2.522 1.803 5.065 3.215 7.536.706 1.235 1.953 2.25 3.188 2.78 1.06.353 2.218.42 3.4.2 1.996-.352 3.563-1.015 4.7-1.7 7.9-4.702 13.417-10.834 18.194-19.535 1.255-2.282 3.862-6.88 2.097-9.705zm-2.47 7.833c-1.148 3.407-4.126 7.864-7.194 11.205-2.85 3.104-10.95 10.546-16.647 10.23-2.667-.147-3.716-2.902-2.756-5.966 1.824-5.824 9.855-17.618 20.066-21.847 2.12-.88 5.87-1.28 6.707-.155 1.2 1.624.536 4.415-.176 6.53z"/><path id="E" d="M28.45 10.774c-.415-1.037-.667-3.034.216-3.387.612-.087 1.028.1 1.322-.202.3-.308.44-.897 1.1-1.177 2.117-.885 4.6.353 5.472 2.295s.85 4.7-1.1 5.57c-2.47 1.06-5.97-.452-7.03-3.1z"/><path id="F" d="M58.667 19.51c0-.53-.294-1.147.412-1.5.883-.177 1.83.258 2.148.912 2.265 4.648-3.56 12.588-7.208 16.97-3.227 3.876-7.828 7.443-12.77 9.738-1.942.706-4.56 1.618-6.15-.147 1.06-1.94 3.72-.65 5.472-1.412.677-.294 3.03-2.118 4.42-3.42-.353.707 5.7-3.935 8.347-7.642 1.942-2.47 3.737-4.823 4.972-7.47.353-.706 1.324-.44 1.676-1.147 0-.177.383-.588.03-.588-.883 0-1.265.56-2 .97 0-.706.824-1.176 1.324-2.118-.177.177-.383-.56.03-1.442-.118-.765-.706-.647-.706-1.706z"/><path id="G" d="M50.1 24.58c-4.213 3.635-8.15 8.976-10.86 14.167-1.205 2.308-1.175 4.86-1.204 4.715-1.412-2.294.36-6.17 1.172-7.45 4.195-6.62 10.208-14.972 17.595-15.237-2.295.53-5 2.327-6.703 3.804z"/><path id="H" d="M9.257 36.047c1.753-1.753 3.707-1.152 4.157-.8s1.253 2.254 1.954 2.505 2.805 1.352 5.26.25 3.406-2.154 3.456-3.406.45-1.153-1.052-2.455-1.603-1.052-2.405-1.703-.852-1.402-.25-2.254 2.254-.65 3.507.1 3.606 2.554 3.907 2.804 3.507 2.956 4.408 2.956 1.102.1 2.003-.5.65-.25 1.803-1.052l1.653-1.202-2.354 4.66-1.854 5-.6 2.105-2.104-3.007-1.002-2.404-1.803-1.503-1.152-1.152-1.002 1.102-1.553 2.554-6.3 2.454-4.358-.1-3.807-.35-2.054-1.703"/><path id="I" d="M11.547 23.254c.514 2.345-5.06 2.307-4.454 5.755.234 1.33 1.178.6 1.7 1.27s.644 1.335.343 1.937-.786 1.1-1.202 1.202c-.73.196-.6-.15-1.202.1s-.9.6-.9.6L4.137 35.22l-.75.55-1.553-1.152-.75-1.854.3-3.606.8-2.754L3.636 23.9l1.403-1.352 1.903-.25s.847-.138 1.954-.15c1.633-.018 2.48.318 2.65 1.107z"/><path id="J" d="M8.78 17.48l4.1 3.795s.647.676 1.383.794 1.44.295 2.06-1.06.5-2.118.56-2.794-.03-1.883.06-2.736.47-1.618.97-2.03.6-.912 1.647-1.618 1.353-1 1.765-1.56.5-2.088.442-2.47.03-1.677-.1-2.03-.265-.912-.6-.97-.412 0-.56.412-.588 1.147-.588 1.147l-.323.618-.736 1.265-.677 1.412-.265.6-.97 1.206-.883.56-.912.177-.97-1.53-.853-.206-.854.353-2.03 2.265-2.324 2.972.118.853"/></defs></svg>